<?xml version="1.0" encoding="UTF-8"?>
<svg xmlns="http://www.w3.org/2000/svg" viewBox="0 0 199.68 45.87">
  <defs>
    <style>
      .cls-1 {
        fill: #01c383;
      }

      .cls-1, .cls-2 {
        stroke-width: 0px;
      }

      .cls-2 {
        fill: #fff;
      }
    </style>
  </defs>
  <g id="verde">
    <polygon class="cls-1" points="9.54 0 32.51 0 25.72 21.03 3.72 21.03 9.54 0"/>
    <polygon class="cls-1" points="31.51 9.45 44.15 9.45 40.41 21.03 28.3 21.03 31.51 9.45"/>
    <polygon class="cls-1" points="3.21 24.85 15.85 24.85 12.11 36.42 0 36.42 3.21 24.85"/>
    <polygon class="cls-1" points="17.79 24.85 40.76 24.85 33.96 45.87 11.97 45.87 17.79 24.85"/>
  </g>
  <g id="LETRA">
    <g>
      <path class="cls-2" d="m61.96,22.32v8.32h-5.67V8.15h7.95c1.77,0,3.27.17,4.52.5,1.25.33,2.26.8,3.05,1.4.79.6,1.36,1.3,1.72,2.11.36.81.54,1.7.54,2.66,0,.73-.11,1.42-.32,2.07-.21.65-.53,1.25-.95,1.8-.42.55-.93,1.04-1.54,1.47-.61.43-1.31.79-2.1,1.07.38.17.74.39,1.06.65.33.26.62.57.86.94l5.2,7.83h-5.13c-.95,0-1.63-.33-2.05-.99l-4.06-6.53c-.18-.29-.39-.49-.63-.62-.24-.12-.58-.19-1.01-.19h-1.44Zm0-3.6h2.28c.77,0,1.43-.09,1.97-.27.54-.18.99-.43,1.33-.75.35-.32.6-.69.75-1.12.16-.43.23-.89.23-1.38,0-.99-.35-1.76-1.05-2.32-.7-.56-1.78-.83-3.25-.83h-2.28v6.67Z"/>
      <path class="cls-2" d="m94.32,8.15v4.01h-10.03v5.25h7.68v3.86h-7.68v5.36h10.03v4.01h-15.73V8.15h15.73Z"/>
      <path class="cls-2" d="m101.15,8.18c.17.02.32.06.45.12.13.06.26.14.39.24.12.1.26.24.42.42l11.61,13.51c-.04-.43-.08-.85-.1-1.26-.02-.41-.03-.79-.03-1.15v-11.9h5v22.49h-2.95c-.44,0-.81-.06-1.11-.19-.3-.12-.59-.35-.87-.68l-11.52-13.4c.03.39.06.77.08,1.15.02.38.03.73.03,1.06v12.06h-5V8.15h2.99c.25,0,.45.01.62.03Z"/>
      <path class="cls-2" d="m140.65,8.15v4.14h-6.88v18.35h-5.67V12.28h-6.88v-4.14h19.42Z"/>
      <path class="cls-2" d="m149.2,30.64h-5.7V8.15h5.7v22.49Z"/>
      <path class="cls-2" d="m157.33,8.18c.17.02.32.06.45.12.13.06.26.14.39.24.12.1.26.24.42.42l11.61,13.51c-.04-.43-.08-.85-.1-1.26-.02-.41-.03-.79-.03-1.15v-11.9h5v22.49h-2.95c-.44,0-.81-.06-1.11-.19-.3-.12-.59-.35-.87-.68l-11.52-13.4c.03.39.06.77.08,1.15.02.38.03.73.03,1.06v12.06h-5V8.15h2.99c.25,0,.45.01.62.03Z"/>
      <path class="cls-2" d="m190.59,26.87c.78,0,1.48-.06,2.08-.19.6-.12,1.17-.29,1.71-.49v-3.41h-2.42c-.36,0-.64-.09-.84-.26-.2-.17-.3-.4-.3-.66v-2.87h8.69v9.49c-.63.42-1.28.78-1.95,1.09-.68.3-1.4.55-2.16.75-.77.2-1.58.34-2.45.43-.87.09-1.8.14-2.79.14-1.79,0-3.44-.29-4.96-.87-1.52-.58-2.84-1.38-3.95-2.41-1.11-1.02-1.98-2.24-2.62-3.64-.63-1.4-.95-2.93-.95-4.58s.3-3.22.91-4.62c.6-1.4,1.47-2.62,2.59-3.64,1.12-1.02,2.48-1.81,4.08-2.38,1.59-.57,3.37-.85,5.34-.85,1.02,0,1.97.08,2.87.23.89.15,1.72.37,2.47.63.75.27,1.45.59,2.07.96.63.37,1.18.77,1.68,1.2l-1.64,2.3c-.16.22-.34.39-.56.51s-.46.19-.71.19c-.34,0-.68-.1-1.04-.31-.45-.25-.87-.46-1.27-.64-.4-.18-.8-.33-1.22-.44-.41-.11-.85-.2-1.31-.25-.46-.05-.97-.08-1.54-.08-1.06,0-2.02.17-2.87.52-.85.34-1.57.83-2.17,1.46-.6.63-1.06,1.38-1.38,2.26-.32.88-.49,1.86-.49,2.94,0,1.19.18,2.25.54,3.18.36.93.85,1.71,1.48,2.35.63.64,1.38,1.12,2.25,1.46.87.33,1.81.5,2.84.5Z"/>
    </g>
  </g>
</svg>